# xmcd
#
# Track frame offsets:
#	150
#	12477
#	34901
#	49577
#	67090
#	84579
#	90371
#	105719
#	122198
#	142797
#	162615
#	184387
#	196696
#	213569
#
# Disc length: 3109 seconds
#
# Revision: 4
# Processed by: cddbd v1.5.2PL0 Copyright (c) Steve Scherf et al.
# Submitted via: audiograbber 1.83.01
#
DISCID=c40c230e
DTITLE=Señor Coconut and His Orchestra - Around The World
DYEAR=2008
DGENRE=Lounge
TTITLE0=Señor Coconut and His Orchestra - Around The World (Intro)
TTITLE1=Señor Coconut and His Orchestra - Sweet Dreams
TTITLE2=Señor Coconut and His Orchestra - Da Da Da Ich Lieb Dich Nicht Du Liebst 
TTITLE2=Mich Nicht
TTITLE3=Señor Coconut and His Orchestra - Kiss
TTITLE4=Señor Coconut and His Orchestra - Corcovado (Quiet Nights Of Quiet Stars)
TTITLE5=Señor Coconut and His Orchestra - Around The World (Interlude)
TTITLE6=Señor Coconut and His Orchestra - Que Rico El Mambo
TTITLE7=Señor Coconut and His Orchestra - Pinball Chacha
TTITLE8=Señor Coconut and His Orchestra - White Horse
TTITLE9=Señor Coconut and His Orchestra - La Vida Es Llena De Cables
TTITLE10=Señor Coconut and His Orchestra - Moscow Discow
TTITLE11=Señor Coconut and His Orchestra - Around The World (Outro)
TTITLE12=Señor Coconut and His Orchestra - Dreams Are My Reality [Full Version]
TTITLE13=Les Baxter - Voodoo Dreams [Atom Remix]
EXTD=
EXTT0=
EXTT1=
EXTT2=
EXTT3=
EXTT4=
EXTT5=
EXTT6=
EXTT7=
EXTT8=
EXTT9=
EXTT10=
EXTT11=
EXTT12=
EXTT13=
PLAYORDER=
